<svg width="916" height="160" viewBox="0 0 916 160" fill="none" xmlns="http://www.w3.org/2000/svg">
<g style="mix-blend-mode:soft-light">
<path d="M111.679 213.732C96.617 213.732 81.4188 211.154 67.1705 205.726C54.0078 200.434 41.9307 192.835 31.7533 183.065C21.8474 173.43 13.7055 161.896 8.41327 149.14C2.71395 135.842 0 121.322 0 107.074C0 92.8253 2.71399 78.0342 8.14191 64.7358C13.4341 51.9802 21.4403 40.3102 31.4819 30.8113C41.5236 21.041 53.7364 13.3063 66.8991 8.14973C81.1474 2.7218 96.0742 0.00783956 111.408 0.143538C126.742 0.143538 141.669 2.72181 155.917 8.42113C169.08 13.7134 181.157 21.4481 191.334 31.3541C201.376 41.1244 209.246 52.6587 214.674 65.55C220.374 78.7127 222.952 92.961 222.816 107.345C222.816 121.865 220.102 136.113 214.674 149.547C209.382 162.303 201.376 173.973 191.334 183.472C181.293 193.106 169.08 200.977 155.917 206.133C141.805 211.697 126.606 214.275 111.408 214.139H111.544L111.679 213.732ZM111.679 168.002C119.957 168.002 127.963 166.781 135.562 163.795C142.619 161.081 148.996 156.875 154.424 151.583C159.852 146.29 164.059 139.37 166.909 132.178C169.894 124.172 171.387 115.623 171.251 106.802C171.658 95.5393 168.808 84.412 163.516 74.3704C158.767 65.4143 151.303 58.0866 142.212 53.0658C132.848 47.9093 122.264 45.331 111.544 45.6024C103.538 45.6024 95.3957 46.9594 87.9323 49.9447C80.876 52.6587 74.4982 56.8653 69.0703 62.1576C63.6424 67.7212 59.4358 74.3704 56.7218 81.5624C53.7364 89.5686 52.1081 98.1175 52.2438 106.938C51.9724 118.201 54.6863 129.328 59.9786 139.37C64.8637 148.326 72.1914 155.654 81.1474 160.674C90.5106 165.831 100.959 168.409 111.544 168.273V168.002H111.679ZM230.008 209.39L308.17 4.21448H365.571L444.411 209.39H388.504L373.712 167.731H298.807L284.287 209.39H230.008ZM310.07 127.157H362.178L335.988 56.3225L310.07 127.157ZM543.199 213.732C527.594 213.732 511.989 211.425 497.062 206.812C483.221 202.741 470.329 195.956 459.202 186.864L482.542 150.497C487.292 155.382 492.991 159.453 499.233 162.438C506.154 165.831 513.346 168.409 520.945 170.173C528.408 171.937 535.736 172.887 543.335 172.887C552.02 173.159 560.569 171.395 568.303 167.866C574.274 165.288 577.938 159.453 577.938 153.211C577.938 147.783 575.36 142.762 570.882 139.777C563.011 134.756 554.191 131.228 544.963 129.464L527.051 124.443C509.682 120.643 493.534 112.502 480.643 100.289C471.279 90.2471 466.123 77.22 466.394 63.6502C466.394 54.6942 468.43 46.0095 472.365 38.2747C476.3 30.4042 481.999 23.6193 489.056 18.0557C496.655 12.085 505.068 7.60693 514.296 4.75727C524.609 1.50052 535.329 -0.127862 546.049 0.00783645C560.976 0.00783645 576.038 2.17901 590.287 6.79274C602.499 10.5923 613.627 16.8344 622.99 25.2477L598.836 60.3935C594.765 56.1868 589.879 52.7944 584.723 50.0804C578.888 47.0951 572.917 44.7882 566.539 43.1598C560.162 41.5314 553.377 40.7173 546.727 40.7173C540.892 40.7173 535.193 41.5314 529.494 43.1598C525.151 44.3811 521.081 46.8237 518.095 50.2161C515.381 53.3372 513.889 57.2724 514.024 61.2077C514.024 64.193 514.974 67.3141 517.01 69.7566C519.859 72.6063 523.387 74.9132 527.323 76.2702C533.701 78.8484 540.214 81.0196 546.999 83.0551L565.182 88.3473C582.416 92.2825 598.428 100.289 611.727 111.416C621.361 120.915 626.518 134.213 626.111 147.647C626.247 159.996 622.718 171.937 615.934 182.115C608.877 192.292 598.836 200.298 587.301 205.319C573.46 211.154 558.262 214.139 543.064 213.732H542.792H543.199ZM660.985 209.39V4.21448H710.651V209.39H660.985ZM832.779 213.732C817.174 213.732 801.568 211.425 786.777 206.812C772.936 202.741 760.045 195.956 748.918 186.864L772.258 150.497C777.143 155.382 782.842 159.453 788.949 162.438C795.869 165.831 803.197 168.409 810.66 170.173C818.124 171.937 825.451 172.887 833.05 172.887C841.735 173.159 850.284 171.395 858.019 167.866C863.99 165.288 867.653 159.453 867.653 153.211C867.653 147.783 865.075 142.762 860.733 139.777C852.862 134.756 844.042 131.228 834.814 129.464L816.902 124.443C799.533 120.643 783.385 112.502 770.494 100.289C761.13 90.2471 755.974 77.22 756.245 63.6502C756.245 54.6942 758.145 46.0095 762.216 38.2747C766.287 30.4042 771.851 23.6193 778.907 18.0557C786.506 12.085 795.055 7.60693 804.147 4.75727C814.46 1.50052 825.044 -0.127862 835.9 0.00783645C850.827 0.00783645 865.889 2.17901 880.138 6.79274C892.35 10.5923 903.478 16.8344 912.977 25.3834L888.822 60.6649C884.751 56.4582 879.866 53.0658 874.71 50.2161C868.875 47.2308 862.904 44.9239 856.526 43.2955C850.148 41.6671 843.363 40.853 836.714 40.853C830.879 40.853 825.044 41.6671 819.481 43.2955C815.138 44.5168 811.067 47.0951 808.082 50.4875C805.368 53.4729 803.875 57.4081 804.011 61.4791C804.011 64.6001 804.961 67.5855 806.996 70.028C809.846 73.0134 813.374 75.3203 817.309 76.5415C823.687 79.1198 830.201 81.291 836.986 83.3265L855.169 88.6187C872.267 92.5539 888.144 100.56 901.578 111.687C911.213 121.186 916.505 134.349 915.962 147.919C916.098 160.267 912.569 172.209 905.785 182.386C898.728 192.563 888.687 200.705 877.152 205.726C863.311 211.561 848.113 214.411 832.915 214.004L832.372 213.732H832.779Z" fill="#f5f3e7"/>
</g>
</svg>
