<svg width="32" height="33" viewBox="0 0 32 33" fill="none" xmlns="http://www.w3.org/2000/svg">
<path d="M16 12.1084L4.09579 19.8462C3.06402 20.5168 2.54813 20.8521 2.36946 21.2774C2.21332 21.649 2.21332 22.0679 2.36946 22.4395M16 12.1084L27.9042 19.8462C28.936 20.5168 29.4519 20.8521 29.6305 21.2774C29.7867 21.649 29.7867 22.0679 29.6305 22.4395M16 12.1084V2.35843M16 21.1084L4.09579 13.3707C3.06402 12.7 2.54813 12.3647 2.36946 11.9395C2.21332 11.5678 2.21332 11.149 2.36946 10.7774M16 21.1084L27.9042 13.3707C28.936 12.7 29.4519 12.3647 29.6305 11.9395C29.7867 11.5678 29.7867 11.149 29.6305 10.7774M16 21.1084V30.8584M29.908 22.5683L17.308 30.7583C16.8345 31.066 16.5978 31.2198 16.3428 31.2797C16.1173 31.3326 15.8827 31.3326 15.6572 31.2797C15.4022 31.2198 15.1655 31.066 14.692 30.7583L2.09203 22.5683C1.69302 22.3089 1.49352 22.1792 1.34897 22.0062C1.22102 21.8531 1.12491 21.676 1.06626 21.4853C1 21.2698 1 21.0319 1 20.556V12.6609C1 12.185 1 11.947 1.06626 11.7316C1.12491 11.5409 1.22102 11.3637 1.34897 11.2106C1.49352 11.0376 1.69302 10.908 2.09203 10.6486L14.692 2.45861C15.1655 2.15088 15.4022 1.99702 15.6572 1.93715C15.8827 1.88423 16.1173 1.88423 16.3428 1.93715C16.5978 1.99702 16.8345 2.15088 17.308 2.45861L29.908 10.6486C30.307 10.908 30.5065 11.0376 30.651 11.2106C30.779 11.3637 30.8751 11.5409 30.9337 11.7316C31 11.947 31 12.185 31 12.6609V20.556C31 21.0319 31 21.2698 30.9337 21.4853C30.8751 21.676 30.779 21.8531 30.651 22.0062C30.5065 22.1792 30.307 22.3089 29.908 22.5683Z" stroke="black" stroke-width="2" stroke-linecap="round" stroke-linejoin="round"/>
</svg>
