<svg width="31" height="32" viewBox="0 0 31 32" fill="none" xmlns="http://www.w3.org/2000/svg">
<path d="M20.4474 10.0555C19.8534 9.46143 19.5564 9.16442 19.4451 8.82192C19.3472 8.52066 19.3472 8.19614 19.4451 7.89487C19.5564 7.55238 19.8534 7.25537 20.4474 6.66134L24.705 2.40378C23.5751 1.89283 22.321 1.6084 21.0003 1.6084C16.0298 1.6084 12.0003 5.63784 12.0003 10.6084C12.0003 11.345 12.0888 12.0609 12.2557 12.746C12.4345 13.4798 12.5238 13.8466 12.508 14.0784C12.4914 14.321 12.4552 14.4501 12.3433 14.6661C12.2364 14.8723 12.0316 15.0771 11.6221 15.4867L2.25034 24.8584C1.0077 26.101 1.0077 28.1158 2.25034 29.3584C3.49298 30.601 5.5077 30.601 6.75034 29.3584L16.1221 19.9867C16.5316 19.5771 16.7364 19.3723 16.9427 19.2654C17.1586 19.1536 17.2877 19.1174 17.5303 19.1008C17.7621 19.0849 18.129 19.1743 18.8627 19.353C19.5479 19.5199 20.2638 19.6084 21.0003 19.6084C25.9709 19.6084 30.0003 15.579 30.0003 10.6084C30.0003 9.28779 29.7159 8.03361 29.205 6.90378L24.9474 11.1613C24.3534 11.7554 24.0564 12.0524 23.7139 12.1637C23.4126 12.2615 23.0881 12.2615 22.7868 12.1637C22.4443 12.0524 22.1473 11.7554 21.5533 11.1613L20.4474 10.0555Z" stroke="black" stroke-width="2" stroke-linecap="round" stroke-linejoin="round"/>
</svg>
