<svg width="32" height="24" viewBox="0 0 32 24" fill="none" xmlns="http://www.w3.org/2000/svg">
<path d="M1.63018 12.6782C1.4259 12.3547 1.32376 12.193 1.26659 11.9435C1.22364 11.7561 1.22364 11.4606 1.26659 11.2733C1.32376 11.0238 1.4259 10.8621 1.63018 10.5386C3.31829 7.86566 8.3431 1.1084 16.0006 1.1084C23.6581 1.1084 28.6829 7.86566 30.371 10.5386C30.5753 10.8621 30.6774 11.0238 30.7346 11.2733C30.7776 11.4606 30.7776 11.7561 30.7346 11.9435C30.6774 12.193 30.5753 12.3547 30.371 12.6782C28.6829 15.3511 23.6581 22.1084 16.0006 22.1084C8.3431 22.1084 3.31829 15.3511 1.63018 12.6782Z" stroke="black" stroke-width="2" stroke-linecap="round" stroke-linejoin="round"/>
<path d="M16.0006 16.1084C18.4859 16.1084 20.5006 14.0937 20.5006 11.6084C20.5006 9.12312 18.4859 7.1084 16.0006 7.1084C13.5153 7.1084 11.5006 9.12312 11.5006 11.6084C11.5006 14.0937 13.5153 16.1084 16.0006 16.1084Z" stroke="black" stroke-width="2" stroke-linecap="round" stroke-linejoin="round"/>
</svg>
