<svg width="32" height="28" viewBox="0 0 32 28" fill="none" xmlns="http://www.w3.org/2000/svg">
<path d="M22 1.81004C24.2226 2.91457 25.75 5.20811 25.75 7.8584C25.75 10.5087 24.2226 12.8022 22 13.9068M25 21.758C27.2672 22.7839 29.3088 24.4559 31 26.6084M1 26.6084C3.91974 22.8923 7.88377 20.6084 12.25 20.6084C16.6162 20.6084 20.5803 22.8923 23.5 26.6084M19 7.8584C19 11.5863 15.9779 14.6084 12.25 14.6084C8.52208 14.6084 5.5 11.5863 5.5 7.8584C5.5 4.13048 8.52208 1.1084 12.25 1.1084C15.9779 1.1084 19 4.13048 19 7.8584Z" stroke="black" stroke-width="2" stroke-linecap="round" stroke-linejoin="round"/>
</svg>
