<svg width="30" height="33" viewBox="0 0 30 33" fill="none" xmlns="http://www.w3.org/2000/svg">
<path d="M27.75 9.5249L15 16.6082M15 16.6082L2.24995 9.5249M15 16.6082L15 30.8583M28.5 22.6961V10.5204C28.5 10.0065 28.5 9.7495 28.4243 9.5203C28.3573 9.31754 28.2478 9.13142 28.1031 8.97438C27.9395 8.79688 27.7148 8.67207 27.2655 8.42247L16.1655 2.2558C15.7401 2.01947 15.5274 1.9013 15.3022 1.85497C15.1028 1.81397 14.8972 1.81397 14.6978 1.85497C14.4726 1.9013 14.2599 2.01947 13.8345 2.25581L2.73446 8.42247C2.28517 8.67208 2.06053 8.79688 1.89695 8.97439C1.75224 9.13142 1.64272 9.31754 1.57573 9.52031C1.5 9.74951 1.5 10.0065 1.5 10.5205V22.6961C1.5 23.2101 1.5 23.4671 1.57573 23.6963C1.64272 23.899 1.75224 24.0851 1.89695 24.2422C2.06053 24.4197 2.28517 24.5445 2.73446 24.7941L13.8345 30.9608C14.2599 31.1971 14.4726 31.3153 14.6978 31.3616C14.8972 31.4026 15.1028 31.4026 15.3022 31.3616C15.5274 31.3153 15.7401 31.1971 16.1655 30.9608L27.2655 24.7941C27.7148 24.5445 27.9395 24.4197 28.1031 24.2422C28.2478 24.0851 28.3573 23.899 28.4243 23.6963C28.5 23.4671 28.5 23.2101 28.5 22.6961Z" stroke="black" stroke-width="2" stroke-linecap="round" stroke-linejoin="round"/>
</svg>
