<svg width="32" height="33" viewBox="0 0 32 33" fill="none" xmlns="http://www.w3.org/2000/svg">
<path d="M10.75 20.6084C10.75 22.5414 12.317 24.1084 14.25 24.1084H17.5C19.5711 24.1084 21.25 22.4295 21.25 20.3584C21.25 18.2873 19.5711 16.6084 17.5 16.6084H14.5C12.4289 16.6084 10.75 14.9295 10.75 12.8584C10.75 10.7873 12.4289 9.1084 14.5 9.1084H17.75C19.683 9.1084 21.25 10.6754 21.25 12.6084M16 6.8584V9.1084M16 24.1084V26.3584M31 16.6084C31 24.8927 24.2843 31.6084 16 31.6084C7.71573 31.6084 1 24.8927 1 16.6084C1 8.32413 7.71573 1.6084 16 1.6084C24.2843 1.6084 31 8.32413 31 16.6084Z" stroke="black" stroke-width="2" stroke-linecap="round" stroke-linejoin="round"/>
</svg>
