<svg width="114" height="38" viewBox="0 0 114 38" fill="none" xmlns="http://www.w3.org/2000/svg">
<path d="M17.2837 37.5C16.0061 37.5 14.7693 37.1729 13.6757 36.5494L3.60801 30.8461C1.39006 29.5787 0 27.2279 0 24.7135V13.2967C0 10.7823 1.37983 8.41105 3.60801 7.16409L13.6757 1.45055C14.7693 0.827072 16.0163 0.5 17.2837 0.5C18.5511 0.5 19.7878 0.827072 20.8917 1.45055L30.9594 7.15387C33.1876 8.42127 34.5674 10.7721 34.5674 13.2865V24.7033C34.5674 27.2177 33.1876 29.5787 30.9594 30.8359L20.8917 36.5392C19.7981 37.1627 18.5511 37.4898 17.2837 37.4898V37.5ZM14.5547 35.0572C15.3826 35.5171 16.3229 35.7726 17.2837 35.7726C18.2445 35.7726 19.1848 35.5273 20.0127 35.0572L30.0804 29.3539C31.7668 28.4033 32.8094 26.6146 32.8094 24.7135V13.2967C32.8094 11.3854 31.7668 9.60691 30.0804 8.65635L28.4655 7.74668C28.0362 7.58315 24.2544 6.18287 21.0757 6.18287C17.897 6.18287 12.4492 8.90166 11.0693 15.116C11.1 15.0854 11.1204 15.0649 11.1409 15.0445C12.5309 13.6749 13.8699 12.2337 14.8409 11.1912C15.403 10.5983 15.8323 10.118 16.1492 9.79088C16.4558 9.48425 16.8442 9.33094 17.2735 9.33094C17.7028 9.33094 18.1014 9.5047 18.3978 9.79088C18.7249 10.118 19.1746 10.6086 19.7061 11.1707C20.6771 12.2235 22.016 13.6544 23.4061 15.0343C24.7348 16.3425 25.4809 18.0494 25.5423 19.8892V20.0221C25.5423 33.4014 15.4848 34.0862 13.4713 34.0862C11.4577 34.0862 13.0011 34.0862 12.766 34.0657L14.5343 35.0674L14.5547 35.0572ZM17.2939 2.22735C16.3331 2.22735 15.3928 2.47265 14.5649 2.94282L4.49724 8.65635C2.81077 9.60691 1.76823 11.3956 1.76823 13.2967V24.7135C1.76823 26.6249 2.81077 28.3931 4.49724 29.3539L6.58232 30.5293C6.58232 30.5293 9.91436 32.3384 13.4815 32.3384C17.0486 32.3384 20.3909 32.0113 22.7519 26.1751C21.2597 27.5141 19.3279 28.2602 17.2837 28.2602C13.9414 28.2602 10.9467 26.2365 9.62818 23.1191C9.20912 22.1583 9.0047 21.1464 9.0047 20.1243V17.9779C9.0047 12.7039 11.4271 9.45359 13.4713 7.64447C16.1492 5.2732 19.2461 4.43508 21.0757 4.43508C22.9052 4.43508 22.2102 4.47597 22.8439 4.53729L20.0025 2.9326C19.1848 2.47265 18.2343 2.21713 17.2735 2.21713H17.2837L17.2939 2.22735ZM10.7627 20.0732C10.7627 20.8704 10.9365 21.6779 11.2533 22.4547C12.2959 24.9282 14.6671 26.5124 17.2735 26.5124C19.8798 26.5124 22.2511 24.918 23.2936 22.4547C23.5901 21.7699 23.7434 21.0749 23.774 20.3798V19.9914C23.774 19.8381 23.774 19.9506 23.774 19.9301C23.7331 18.5298 23.1812 17.2522 22.1387 16.2301C20.7077 14.8196 19.3586 13.3682 18.3773 12.3155C17.9174 11.8146 17.5392 11.4058 17.253 11.1094C16.9566 11.4058 16.5887 11.8146 16.1287 12.3155C15.1475 13.3785 13.7983 14.8298 12.3674 16.2301C11.3657 17.2318 10.7831 18.4685 10.7423 19.8483V20.0528L10.7729 20.0732H10.7627Z" fill="black"/>
<path d="M52.9832 27.0338C51.8486 27.0338 50.7039 26.8396 49.6307 26.4308C48.6392 26.0322 47.7296 25.4598 46.963 24.7239C46.2169 23.9982 45.6036 23.1294 45.205 22.1686C44.7757 21.167 44.5713 20.0733 44.5713 19.0001C44.5713 17.9269 44.7757 16.8128 45.1846 15.8112C45.5832 14.8504 46.1862 13.9714 46.9426 13.2559C47.6989 12.52 48.6188 11.9374 49.6102 11.549C50.6834 11.1402 51.8078 10.9358 52.9627 10.946C54.1177 10.946 55.242 11.1402 56.3152 11.5695C57.3066 11.9681 58.2163 12.5507 58.9829 13.2968C59.7392 14.0327 60.3321 14.9015 60.7409 15.8725C61.1702 16.8639 61.3644 17.9372 61.3542 19.0206C61.3542 20.1142 61.1497 21.1874 60.7409 22.1993C60.3423 23.1601 59.7392 24.0391 58.9829 24.7546C58.2265 25.4802 57.3066 26.0731 56.3152 26.4615C55.2522 26.8805 54.1075 27.0747 52.9627 27.0645H52.9729L52.9832 27.0338ZM52.9832 23.5894C53.6066 23.5894 54.2097 23.4974 54.7821 23.2725C55.3136 23.0681 55.7939 22.7512 56.2028 22.3526C56.6116 21.954 56.9285 21.4327 57.1431 20.891C57.368 20.288 57.4804 19.6441 57.4702 18.9797C57.5008 18.1314 57.2862 17.2932 56.8876 16.5369C56.5299 15.8623 55.9677 15.3104 55.2829 14.9322C54.5776 14.5438 53.7804 14.3496 52.9729 14.37C52.3699 14.37 51.7566 14.4722 51.1945 14.6971C50.663 14.9015 50.1826 15.2184 49.7738 15.617C49.3649 16.036 49.0481 16.5369 48.8437 17.0786C48.6188 17.6816 48.4962 18.3256 48.5064 18.9899C48.4859 19.8383 48.6904 20.6764 49.089 21.4327C49.4569 22.1073 50.0089 22.6593 50.6834 23.0374C51.3887 23.4258 52.1757 23.62 52.9729 23.6098V23.5894H52.9832ZM61.8959 26.7068L67.7832 11.2526H72.1066L78.045 26.7068H73.834L72.7199 23.5689H67.0779L65.9843 26.7068H61.8959ZM67.9263 20.5128H71.8511L69.8785 15.1775L67.9263 20.5128ZM85.4859 27.0338C84.3105 27.0338 83.1351 26.8601 82.0108 26.5126C80.9683 26.2059 79.9973 25.6949 79.1591 25.0101L80.9171 22.2709C81.2749 22.6388 81.7042 22.9454 82.1743 23.1703C82.6956 23.4258 83.2373 23.62 83.8097 23.7529C84.3718 23.8858 84.9238 23.9573 85.4961 23.9573C86.1503 23.9778 86.7942 23.8449 87.3768 23.5791C87.8265 23.3849 88.1025 22.9454 88.1025 22.4753C88.1025 22.0664 87.9083 21.6883 87.571 21.4634C86.9782 21.0852 86.3138 20.8195 85.6188 20.6866L84.2696 20.3084C82.9613 20.0222 81.745 19.409 80.7741 18.4891C80.0688 17.7327 79.6804 16.7515 79.7008 15.7294C79.7008 15.0548 79.8542 14.4007 80.1506 13.8181C80.447 13.2253 80.8763 12.7142 81.4077 12.2952C81.9801 11.8454 82.6138 11.5081 83.3089 11.2935C84.0856 11.0482 84.8931 10.9255 85.7006 10.9358C86.8249 10.9358 87.9594 11.0993 89.0326 11.4468C89.9525 11.733 90.7906 12.2032 91.4959 12.8369L89.6765 15.4841C89.3699 15.1673 89.0019 14.9117 88.6136 14.7073C88.174 14.4825 87.7243 14.3087 87.2439 14.186C86.7636 14.0634 86.2525 14.0021 85.7517 14.0021C85.3122 14.0021 84.8829 14.0634 84.4536 14.186C84.1265 14.278 83.8199 14.462 83.595 14.7175C83.3906 14.9526 83.2782 15.249 83.2884 15.5454C83.2884 15.7703 83.36 16.0054 83.5133 16.1894C83.7279 16.404 83.9937 16.5778 84.2901 16.68C84.7705 16.8742 85.2611 17.0377 85.7721 17.191L87.1417 17.5896C88.4398 17.886 89.6459 18.4891 90.6475 19.3272C91.3732 20.0427 91.7616 21.0443 91.731 22.0562C91.7412 22.9863 91.4754 23.8858 90.9644 24.6523C90.4329 25.4189 89.6765 26.022 88.8078 26.4001C87.7652 26.8396 86.6205 27.0645 85.4757 27.0338H85.4553H85.4859ZM94.3578 26.7068V11.2526H98.0986V26.7068H94.3578ZM107.298 27.0338C106.122 27.0338 104.947 26.8601 103.833 26.5126C102.79 26.2059 101.819 25.6949 100.981 25.0101L102.739 22.2709C103.107 22.6388 103.536 22.9454 103.996 23.1703C104.517 23.4258 105.069 23.62 105.632 23.7529C106.194 23.8858 106.746 23.9573 107.318 23.9573C107.972 23.9778 108.616 23.8449 109.199 23.5791C109.648 23.3849 109.924 22.9454 109.924 22.4753C109.924 22.0664 109.73 21.6883 109.403 21.4634C108.81 21.0852 108.146 20.8195 107.451 20.6866L106.102 20.3084C104.793 20.0222 103.577 19.409 102.606 18.4891C101.901 17.7327 101.512 16.7515 101.533 15.7294C101.533 15.0548 101.676 14.4007 101.983 13.8181C102.289 13.2253 102.708 12.7142 103.24 12.2952C103.812 11.8454 104.456 11.5081 105.141 11.2935C105.918 11.0482 106.715 10.9255 107.533 10.9358C108.657 10.9358 109.791 11.0993 110.865 11.4468C111.785 11.733 112.623 12.2032 113.338 12.8471L111.519 15.5046C111.212 15.1877 110.844 14.9322 110.456 14.7175C110.016 14.4927 109.567 14.3189 109.086 14.1963C108.606 14.0736 108.095 14.0123 107.594 14.0123C107.154 14.0123 106.715 14.0736 106.296 14.1963C105.969 14.2883 105.662 14.4825 105.437 14.738C105.233 14.9628 105.12 15.2593 105.131 15.5659C105.131 15.801 105.202 16.0258 105.356 16.2098C105.57 16.4347 105.836 16.6084 106.132 16.7004C106.613 16.8946 107.103 17.0581 107.614 17.2115L108.984 17.6101C110.272 17.9065 111.468 18.5095 112.48 19.3476C113.205 20.0631 113.604 21.0546 113.563 22.0767C113.573 23.0068 113.307 23.9062 112.796 24.6728C112.265 25.4394 111.509 26.0526 110.64 26.4308C109.597 26.8703 108.452 27.0849 107.308 27.0543L107.267 27.0338H107.298Z" fill="black"/>
</svg>
