<svg width="172" height="80" viewBox="0 0 172 80" fill="none" xmlns="http://www.w3.org/2000/svg">
  <path fill-rule="evenodd" clip-rule="evenodd" d="M164 -22.5C175.322 -22.5 184.5 -13.3218 184.5 -2C184.5 9.32184 175.322 18.5 164 18.5L82 18.5C70.6782 18.5 61.5 9.32184 61.5 -2C61.5 -13.3218 70.6782 -22.5 82 -22.5L164 -22.5ZM164 14.4L82 14.4C72.9425 14.4 65.6 7.05747 65.6 -2C65.6 -11.0575 72.9425 -18.4 82 -18.4L164 -18.4C173.057 -18.4 180.4 -11.0575 180.4 -2C180.4 7.05748 173.057 14.4 164 14.4Z" fill="#fe4537" fill-opacity="0.86" style="mix-blend-mode:soft-light"/>
  <path fill-rule="evenodd" clip-rule="evenodd" d="M196.8 -1.99999C196.8 -20.1149 182.115 -34.8 164 -34.8L82 -34.8C63.8851 -34.8 49.2 -20.1149 49.2 -2C49.2 16.1149 63.8851 30.8 82 30.8L164 30.8C182.115 30.8 196.8 16.1149 196.8 -1.99999ZM82 26.7L164 26.7C179.851 26.7 192.7 13.8506 192.7 -1.99999C192.7 -17.8506 179.851 -30.7 164 -30.7L82 -30.7C66.1494 -30.7 53.3 -17.8506 53.3 -2C53.3 13.8506 66.1494 26.7 82 26.7Z" fill="#fe4537" fill-opacity="0.86" style="mix-blend-mode:soft-light"/>
  <path fill-rule="evenodd" clip-rule="evenodd" d="M164 -47.1C188.908 -47.1 209.1 -26.908 209.1 -1.99999C209.1 22.908 188.908 43.1 164 43.1L82 43.1C57.092 43.1 36.9 22.908 36.9 -2C36.9 -26.908 57.092 -47.1 82 -47.1L164 -47.1ZM164 39L82 39C59.3563 39 41 20.6437 41 -2C41 -24.6437 59.3563 -43 82 -43L164 -43C186.644 -43 205 -24.6437 205 -1.99999C205 20.6437 186.644 39 164 39Z" fill="#fe4537" fill-opacity="0.86" style="mix-blend-mode:soft-light"/>
  <path fill-rule="evenodd" clip-rule="evenodd" d="M221.4 -1.99999C221.4 -33.7011 195.701 -59.4 164 -59.4L82 -59.4C50.2989 -59.4 24.6 -33.7011 24.6 -2C24.6 29.7011 50.2989 55.4 82 55.4L164 55.4C195.701 55.4 221.4 29.7012 221.4 -1.99999ZM82 51.3L164 51.3C193.437 51.3 217.3 27.4368 217.3 -1.99999C217.3 -31.4368 193.437 -55.3 164 -55.3L82 -55.3C52.5632 -55.3 28.7 -31.4368 28.7 -2C28.7 27.4368 52.5632 51.3 82 51.3Z" fill="#fe4537" fill-opacity="0.86" style="mix-blend-mode:soft-light"/>
  <path fill-rule="evenodd" clip-rule="evenodd" d="M164 -71.7C202.494 -71.7 233.7 -40.4942 233.7 -1.99999C233.7 36.4943 202.494 67.7 164 67.7L82 67.7C43.5058 67.7 12.3 36.4942 12.3 -2C12.3 -40.4943 43.5058 -71.7 82 -71.7L164 -71.7ZM164 63.6L82 63.6C45.7701 63.6 16.4 34.2299 16.4 -2C16.4 -38.2299 45.7701 -67.6 82 -67.6L164 -67.6C200.23 -67.6 229.6 -38.2299 229.6 -1.99999C229.6 34.2299 200.23 63.6 164 63.6Z" fill="#fe4537" fill-opacity="0.86" style="mix-blend-mode:soft-light"/>
  <path fill-rule="evenodd" clip-rule="evenodd" d="M164 -84C209.287 -84 246 -47.2873 246 -1.99999C246 43.2874 209.287 80 164 80L82 80C36.7126 80 -5.56391e-06 43.2874 -3.58433e-06 -2C-1.60476e-06 -47.2874 36.7127 -84 82 -84L164 -84ZM164 75.9L82 75.9C38.977 75.9 4.1 41.023 4.1 -2C4.1 -45.023 38.977 -79.9 82 -79.9L164 -79.9C207.023 -79.9 241.9 -45.023 241.9 -1.99999C241.9 41.023 207.023 75.9 164 75.9Z" fill="#fe4537" fill-opacity="0.86" style="mix-blend-mode:soft-light"/>
</svg>
