<svg width="376" height="192" viewBox="0 0 376 192" fill="none" xmlns="http://www.w3.org/2000/svg">
<path fill-rule="evenodd" clip-rule="evenodd" d="M0 128.444L402 256.889L402 0L0 128.444ZM397.603 20.1871L397.603 236.702L349.957 128.444L397.603 20.1871ZM395.032 241.057L345.469 128.444L395.032 15.832L312.427 128.444L395.032 241.057ZM274.966 128.444L389.82 240.284L307.781 128.444L389.82 16.6044L274.966 128.444ZM383.945 239.307L270.094 128.444L383.945 17.5816L237.565 128.444L383.945 239.307ZM200.215 128.444L377.268 238.157L232.406 128.444L377.268 18.7315L200.215 128.444ZM369.685 236.864L194.719 128.444L369.685 20.0244L162.907 128.444L369.685 236.864ZM125.633 128.444L361.12 235.454L157.031 128.444L361.12 21.4344L125.633 128.444ZM351.518 233.949L119.344 128.444L351.518 22.94L88.3872 128.444L351.518 233.949ZM44.9624 128.444L348.997 235.637L81.6562 128.444L348.997 21.252L44.9624 128.444ZM326.977 230.438L37.6875 128.444L326.976 26.4508L7.76107 128.444L326.977 230.438Z" fill="#f1d416" style="mix-blend-mode:soft-light"/>
</svg>
