<svg width="263" height="192" viewBox="0 0 263 192" fill="none" xmlns="http://www.w3.org/2000/svg">
<path d="M288.542 72.25C288.542 91.9342 272.573 109.878 246.472 122.929C220.399 135.965 184.347 144.042 144.5 144.042C104.653 144.042 68.6012 135.965 42.528 122.929C16.4274 109.878 0.458245 91.9342 0.458245 72.25C0.458245 52.5658 16.4274 34.6217 42.528 21.5714C68.6012 8.53479 104.653 0.458245 144.5 0.458245C184.347 0.458245 220.399 8.53479 246.472 21.5714C272.573 34.6217 288.542 52.5658 288.542 72.25Z" stroke="#039505" stroke-width="0.91649" style="mix-blend-mode:soft-light"/>
<path d="M288.542 80.2778C288.542 99.962 272.573 117.906 246.472 130.956C220.399 143.993 184.347 152.07 144.5 152.07C104.653 152.07 68.6012 143.993 42.528 130.956C16.4274 117.906 0.458245 99.962 0.458245 80.2778C0.458245 60.5936 16.4274 42.6495 42.528 29.5992C68.6012 16.5626 104.653 8.48602 144.5 8.48602C184.347 8.48602 220.399 16.5626 246.472 29.5992C272.573 42.6495 288.542 60.5936 288.542 80.2778Z" stroke="#039505" stroke-width="0.91649" style="mix-blend-mode:soft-light"/>
<path d="M288.542 88.3055C288.542 107.99 272.573 125.934 246.472 138.984C220.399 152.021 184.347 160.097 144.5 160.097C104.653 160.097 68.6012 152.021 42.528 138.984C16.4274 125.934 0.458245 107.99 0.458245 88.3055C0.458245 68.6213 16.4274 50.6773 42.528 37.6269C68.6012 24.5903 104.653 16.5138 144.5 16.5138C184.347 16.5138 220.399 24.5903 246.472 37.6269C272.573 50.6773 288.542 68.6213 288.542 88.3055Z" stroke="#039505" stroke-width="0.91649" style="mix-blend-mode:soft-light"/>
<path d="M288.542 96.3333C288.542 116.018 272.573 133.962 246.472 147.012C220.399 160.049 184.347 168.125 144.5 168.125C104.653 168.125 68.6012 160.049 42.528 147.012C16.4274 133.962 0.458245 116.018 0.458245 96.3333C0.458245 76.6491 16.4274 58.705 42.528 45.6547C68.6012 32.6181 104.653 24.5416 144.5 24.5416C184.347 24.5416 220.399 32.6181 246.472 45.6547C272.573 58.705 288.542 76.6491 288.542 96.3333Z" stroke="#039505" stroke-width="0.91649" style="mix-blend-mode:soft-light"/>
<path d="M288.542 104.361C288.542 124.045 272.573 141.989 246.472 155.04C220.399 168.076 184.347 176.153 144.5 176.153C104.653 176.153 68.6012 168.076 42.528 155.04C16.4274 141.989 0.458245 124.045 0.458245 104.361C0.458245 84.6769 16.4274 66.7328 42.528 53.6825C68.6012 40.6459 104.653 32.5693 144.5 32.5693C184.347 32.5693 220.399 40.6459 246.472 53.6825C272.573 66.7328 288.542 84.6769 288.542 104.361Z" stroke="#039505" stroke-width="0.91649" style="mix-blend-mode:soft-light"/>
<path d="M288.542 112.389C288.542 132.073 272.573 150.017 246.472 163.068C220.399 176.104 184.347 184.181 144.5 184.181C104.653 184.181 68.6012 176.104 42.528 163.068C16.4274 150.017 0.458245 132.073 0.458245 112.389C0.458245 92.7047 16.4274 74.7606 42.528 61.7103C68.6012 48.6737 104.653 40.5972 144.5 40.5972C184.347 40.5972 220.399 48.6737 246.472 61.7103C272.573 74.7606 288.542 92.7047 288.542 112.389Z" stroke="#039505" stroke-width="0.91649" style="mix-blend-mode:soft-light"/>
<path d="M288.542 120.417C288.542 140.101 272.573 158.045 246.472 171.095C220.399 184.132 184.347 192.208 144.5 192.208C104.653 192.208 68.6012 184.132 42.528 171.095C16.4274 158.045 0.458245 140.101 0.458245 120.417C0.458245 100.732 16.4274 82.7884 42.528 69.7381C68.6012 56.7015 104.653 48.6249 144.5 48.6249C184.347 48.6249 220.399 56.7015 246.472 69.7381C272.573 82.7884 288.542 100.732 288.542 120.417Z" stroke="#039505" stroke-width="0.91649" style="mix-blend-mode:soft-light"/>
<path d="M288.542 128.444C288.542 148.129 272.573 166.073 246.472 179.123C220.399 192.16 184.347 200.236 144.5 200.236C104.653 200.236 68.6012 192.16 42.528 179.123C16.4274 166.073 0.458245 148.129 0.458245 128.444C0.458245 108.76 16.4274 90.8162 42.528 77.7659C68.6012 64.7292 104.653 56.6527 144.5 56.6527C184.347 56.6527 220.399 64.7292 246.472 77.7659C272.573 90.8162 288.542 108.76 288.542 128.444Z" stroke="#039505" stroke-width="0.91649" style="mix-blend-mode:soft-light"/>
<path d="M288.542 136.472C288.542 156.156 272.573 174.101 246.472 187.151C220.399 200.187 184.347 208.264 144.5 208.264C104.653 208.264 68.6012 200.187 42.528 187.151C16.4274 174.101 0.458245 156.156 0.458245 136.472C0.458245 116.788 16.4274 98.844 42.528 85.7936C68.6012 72.757 104.653 64.6805 144.5 64.6805C184.347 64.6805 220.399 72.757 246.472 85.7936C272.573 98.844 288.542 116.788 288.542 136.472Z" stroke="#039505" stroke-width="0.91649" style="mix-blend-mode:soft-light"/>
<path d="M288.542 144.5C288.542 164.184 272.573 182.128 246.472 195.179C220.399 208.215 184.347 216.292 144.5 216.292C104.653 216.292 68.6012 208.215 42.528 195.179C16.4274 182.128 0.458245 164.184 0.458245 144.5C0.458245 124.816 16.4274 106.872 42.528 93.8214C68.6012 80.7848 104.653 72.7082 144.5 72.7082C184.347 72.7082 220.399 80.7848 246.472 93.8214C272.573 106.872 288.542 124.816 288.542 144.5Z" stroke="#039505" stroke-width="0.91649" style="mix-blend-mode:soft-light"/>
<path d="M288.542 152.528C288.542 172.212 272.573 190.156 246.472 203.206C220.399 216.243 184.347 224.32 144.5 224.32C104.653 224.32 68.6012 216.243 42.528 203.206C16.4274 190.156 0.458245 172.212 0.458245 152.528C0.458245 132.844 16.4274 114.899 42.528 101.849C68.6012 88.8126 104.653 80.736 144.5 80.736C184.347 80.736 220.399 88.8126 246.472 101.849C272.573 114.899 288.542 132.844 288.542 152.528Z" stroke="#039505" stroke-width="0.91649" style="mix-blend-mode:soft-light"/>
<path d="M288.542 160.556C288.542 180.24 272.573 198.184 246.472 211.234C220.399 224.271 184.347 232.347 144.5 232.347C104.653 232.347 68.6012 224.271 42.528 211.234C16.4274 198.184 0.458245 180.24 0.458245 160.556C0.458245 140.871 16.4274 122.927 42.528 109.877C68.6012 96.8403 104.653 88.7638 144.5 88.7638C184.347 88.7638 220.399 96.8403 246.472 109.877C272.573 122.927 288.542 140.871 288.542 160.556Z" stroke="#039505" stroke-width="0.91649" style="mix-blend-mode:soft-light"/>
<path d="M288.542 168.583C288.542 188.268 272.573 206.212 246.472 219.262C220.399 232.299 184.347 240.375 144.5 240.375C104.653 240.375 68.6012 232.299 42.528 219.262C16.4274 206.212 0.458245 188.268 0.458245 168.583C0.458245 148.899 16.4274 130.955 42.528 117.905C68.6012 104.868 104.653 96.7916 144.5 96.7916C184.347 96.7916 220.399 104.868 246.472 117.905C272.573 130.955 288.542 148.899 288.542 168.583Z" stroke="#039505" stroke-width="0.91649" style="mix-blend-mode:soft-light"/>
<path d="M288.542 176.611C288.542 196.295 272.573 214.239 246.472 227.29C220.399 240.326 184.347 248.403 144.5 248.403C104.653 248.403 68.6012 240.326 42.528 227.29C16.4274 214.239 0.458245 196.295 0.458245 176.611C0.458245 156.927 16.4274 138.983 42.528 125.933C68.6012 112.896 104.653 104.819 144.5 104.819C184.347 104.819 220.399 112.896 246.472 125.933C272.573 138.983 288.542 156.927 288.542 176.611Z" stroke="#039505" stroke-width="0.91649" style="mix-blend-mode:soft-light"/>
<path d="M288.542 184.639C288.542 204.323 272.573 222.267 246.472 235.317C220.399 248.354 184.347 256.431 144.5 256.431C104.653 256.431 68.6012 248.354 42.528 235.317C16.4274 222.267 0.458245 204.323 0.458245 184.639C0.458245 164.955 16.4274 147.011 42.528 133.96C68.6012 120.924 104.653 112.847 144.5 112.847C184.347 112.847 220.399 120.924 246.472 133.96C272.573 147.011 288.542 164.955 288.542 184.639Z" stroke="#039505" stroke-width="0.91649" style="mix-blend-mode:soft-light"/>
</svg>
