<svg width="263" height="192" viewBox="0 0 263 192" fill="none" xmlns="http://www.w3.org/2000/svg">
<path d="M181.878 124.5C181.878 156.852 176.194 186.097 167.041 207.22C162.463 217.783 157.037 226.273 151.057 232.109C145.082 237.941 138.603 241.082 131.88 241.082C125.156 241.082 118.677 237.941 112.702 232.109C106.722 226.273 101.296 217.783 96.7183 207.22C87.565 186.097 81.8809 156.852 81.8809 124.5C81.8809 92.1482 87.565 62.903 96.7183 41.7799C101.296 31.217 106.722 22.7269 112.702 16.8906C118.677 11.0585 125.156 7.91797 131.88 7.91797C138.603 7.91797 145.082 11.0585 151.057 16.8906C157.037 22.7269 162.463 31.217 167.041 41.7799C176.194 62.903 181.878 92.1482 181.878 124.5Z" stroke="#5694e8" stroke-width="1.83594" style="mix-blend-mode:soft-light"/>
<path d="M189.711 124.5C189.711 156.852 184.027 186.097 174.874 207.22C170.297 217.783 164.87 226.273 158.89 232.109C152.915 237.941 146.436 241.082 139.713 241.082C132.989 241.082 126.51 237.941 120.535 232.109C114.555 226.273 109.129 217.783 104.551 207.22C95.398 186.097 89.7139 156.852 89.7139 124.5C89.7139 92.1482 95.398 62.903 104.551 41.7799C109.129 31.217 114.555 22.7269 120.535 16.8906C126.51 11.0585 132.989 7.91797 139.713 7.91797C146.436 7.91797 152.915 11.0585 158.89 16.8906C164.87 22.7269 170.297 31.217 174.874 41.7799C184.027 62.903 189.711 92.1482 189.711 124.5Z" stroke="#5694e8" stroke-width="1.83594" style="mix-blend-mode:soft-light"/>
<path d="M197.545 124.5C197.545 156.852 191.861 186.097 182.707 207.22C178.13 217.783 172.703 226.273 166.724 232.109C160.749 237.941 154.269 241.082 147.546 241.082C140.823 241.082 134.343 237.941 128.368 232.109C122.389 226.273 116.962 217.783 112.385 207.22C103.232 186.097 97.5474 156.852 97.5474 124.5C97.5474 92.1482 103.232 62.903 112.385 41.7799C116.962 31.217 122.389 22.7269 128.368 16.8906C134.343 11.0585 140.823 7.91797 147.546 7.91797C154.269 7.91797 160.749 11.0585 166.724 16.8906C172.703 22.7269 178.13 31.217 182.707 41.7799C191.861 62.903 197.545 92.1482 197.545 124.5Z" stroke="#5694e8" stroke-width="1.83594" style="mix-blend-mode:soft-light"/>
<path d="M160.795 87.9839C188.813 104.16 211.298 123.705 225.014 142.194C231.873 151.439 236.513 160.384 238.577 168.48C240.641 176.571 240.121 183.753 236.759 189.575C233.397 195.398 227.438 199.439 219.399 201.697C211.355 203.957 201.289 204.412 189.853 203.095C166.983 200.46 138.814 190.76 110.797 174.584C82.7791 158.408 60.294 138.863 46.5776 120.375C39.7185 111.129 35.0792 102.184 33.0145 94.0879C30.9513 85.9972 31.4713 78.8156 34.8329 72.993C38.1946 67.1705 44.1541 63.1294 52.1924 60.8709C60.2364 58.6107 70.3024 58.1561 81.7389 59.4735C104.609 62.108 132.778 71.808 160.795 87.9839Z" stroke="#5694e8" stroke-width="1.83594" style="mix-blend-mode:soft-light"/>
<path d="M164.713 81.1999C192.73 97.3758 215.215 116.921 228.932 135.41C235.791 144.655 240.43 153.6 242.495 161.696C244.558 169.787 244.038 176.969 240.676 182.791C237.315 188.614 231.355 192.655 223.317 194.913C215.273 197.173 205.207 197.628 193.77 196.311C170.901 193.676 142.731 183.976 114.714 167.8C86.6966 151.624 64.2115 132.079 50.4951 113.591C43.6359 104.345 38.9967 95.4003 36.932 87.3039C34.8688 79.2132 35.3887 72.0316 38.7504 66.2091C42.112 60.3865 48.0715 56.3454 56.1099 54.0869C64.1539 51.8267 74.2199 51.3721 85.6563 52.6895C108.526 55.324 136.695 65.024 164.713 81.1999Z" stroke="#5694e8" stroke-width="1.83594" style="mix-blend-mode:soft-light"/>
<path d="M168.628 74.4161C196.646 90.592 219.131 110.137 232.847 128.626C239.706 137.871 244.346 146.816 246.41 154.912C248.474 163.003 247.954 170.185 244.592 176.007C241.23 181.83 235.271 185.871 227.232 188.129C219.188 190.39 209.122 190.844 197.686 189.527C174.816 186.892 146.647 177.192 118.63 161.016C90.6121 144.84 68.127 125.295 54.4106 106.807C47.5515 97.5612 42.9122 88.6164 40.8475 80.5201C38.7843 72.4294 39.3043 65.2478 42.6659 59.4252C46.0276 53.6026 51.9871 49.5615 60.0254 47.303C68.0694 45.0429 78.1354 44.5882 89.5719 45.9057C112.442 48.5402 140.611 58.2402 168.628 74.4161Z" stroke="#5694e8" stroke-width="1.83594" style="mix-blend-mode:soft-light"/>
<path d="M118.631 87.9839C90.6131 104.16 68.128 123.705 54.4116 142.194C47.5524 151.439 42.9132 160.384 40.8485 168.48C38.7853 176.571 39.3052 183.753 42.6669 189.575C46.0285 195.398 51.988 199.439 60.0264 201.697C68.0704 203.957 78.1364 204.412 89.5728 203.095C112.443 200.46 140.612 190.76 168.629 174.584C196.647 158.408 219.132 138.863 232.848 120.375C239.707 111.129 244.347 102.184 246.411 94.0879C248.474 85.9972 247.955 78.8156 244.593 72.993C241.231 67.1705 235.272 63.1294 227.233 60.8709C219.189 58.6107 209.123 58.1561 197.687 59.4735C174.817 62.108 146.648 71.808 118.631 87.9839Z" stroke="#5694e8" stroke-width="1.83594" style="mix-blend-mode:soft-light"/>
<path d="M114.713 81.1999C86.6956 97.3758 64.2105 116.921 50.4941 135.41C43.6349 144.655 38.9957 153.6 36.931 161.696C34.8678 169.787 35.3877 176.969 38.7494 182.791C42.111 188.614 48.0706 192.655 56.1089 194.913C64.1529 197.173 74.2189 197.628 85.6553 196.311C108.525 193.676 136.694 183.976 164.712 167.8C192.729 151.624 215.214 132.079 228.931 113.591C235.79 104.345 240.429 95.4003 242.494 87.3039C244.557 79.2132 244.037 72.0316 240.675 66.2091C237.314 60.3865 231.354 56.3454 223.316 54.0869C215.272 51.8267 205.206 51.3721 193.769 52.6895C170.9 55.324 142.73 65.024 114.713 81.1999Z" stroke="#5694e8" stroke-width="1.83594" style="mix-blend-mode:soft-light"/>
<path d="M110.798 74.4161C82.7801 90.592 60.295 110.137 46.5786 128.626C39.7194 137.871 35.0802 146.816 33.0155 154.912C30.9523 163.003 31.4722 170.185 34.8339 176.007C38.1955 181.83 44.155 185.871 52.1934 188.129C60.2374 190.39 70.3033 190.844 81.7398 189.527C104.61 186.892 132.779 177.192 160.796 161.016C188.814 144.84 211.299 125.295 225.015 106.807C231.874 97.5612 236.514 88.6164 238.578 80.5201C240.641 72.4294 240.122 65.2478 236.76 59.4252C233.398 53.6026 227.439 49.5615 219.4 47.303C211.356 45.0429 201.29 44.5882 189.854 45.9057C166.984 48.5402 138.815 58.2402 110.798 74.4161Z" stroke="#5694e8" stroke-width="1.83594" style="mix-blend-mode:soft-light"/>
</svg>
